<svg id="Capa_1" data-name="Capa 1" xmlns="http://www.w3.org/2000/svg" viewBox="0 0 413.66 532.52"><defs><style>.cls-1{fill:#1d1d1b;}</style></defs><path class="cls-1" d="M750.89,730.9l0,0h0l-.05,0C729,719.39,705.21,719.49,702,719.56H594.67V748h108c.33,0,32.84-1,48.19,18.33h0C766.19,747,798.7,748,799,748H905.68V719.56h-106C796.46,719.49,772.68,719.39,750.89,730.9Z" transform="translate(-543.2 -233.8)"/><path class="cls-1" d="M956.85,601.14V233.8H543.24V600.71c0,.25,0,.49,0,.73A62.11,62.11,0,0,0,560.75,644c13.63,14,33.57,21.34,59.16,22.06v.06h.85v.13h11.93s0-.09,0-.13h70c.33,0,32.84-1,48.19,18.33h0c15.35-19.32,47.86-18.36,48.19-18.33h.43l77.26.09h0c27.52,0,48.68-7.5,62.88-22.28A62.38,62.38,0,0,0,956.85,601.14Zm-77.5,36.52H799.64c-3.18-.07-27-.17-48.75,11.34l0,0h0l-.05,0C729,637.49,705.21,637.59,702,637.66H620.42c-17.58-.53-30.73-4.94-39-13.22a34.16,34.16,0,0,1-9.79-22l0-340.22H928.41V601.35c0,.19,0,.38,0,.56a34.72,34.72,0,0,1-9.32,22.3c-8.24,8.58-21.54,13-39.65,13.45Z" transform="translate(-543.2 -233.8)"/><path class="cls-1" d="M845.1,505.25c-1,.05-1.93.1-2.81.1a13.91,13.91,0,0,1-8.51-3.15h0a14.18,14.18,0,0,0-1.65-1.44c-20.44-15.37-35.57-13.77-45.58-12.71-3.57.38-6.39.67-8.39.19-1.9-.65-7.19-4.42-11.06-7.86-28.75-29.56-59-28.65-79.41-22.67a102.32,102.32,0,0,0-35.91,19.48l-51.91,41.08v36.26l69.84-55.27c.22-.17.49-.4.7-.59,4.12-3.67,41.23-34.87,76.59,1.83.22.23.45.45.69.67,4,3.66,14.4,12.4,23.5,14.63,7,1.73,13,1.1,18.35.53,8-.84,13.81-1.46,24.93,6.72a42.39,42.39,0,0,0,27.82,10.74c1.29,0,2.66-.06,4.11-.12,7.08-.32,14.42-.66,28.45,10.22,4.9,3.79,14,10.67,25.09,19V527.27c-3.12-2.36-5.76-4.39-7.66-5.86C870,504.12,854.4,504.83,845.1,505.25Z" transform="translate(-543.2 -233.8)"/><path class="cls-1" d="M750.83,685h0l0,0h.07l0,0h0Z" transform="translate(-543.2 -233.8)"/><path class="cls-1" d="M883.19,426.94a137.4,137.4,0,0,0-11.9-28.71l16.59-16.58-54-54L817.27,344.2a137.35,137.35,0,0,0-28.72-11.9V308.85H712.14V332.3a137.49,137.49,0,0,0-28.71,11.9l-16.59-16.59-54,54,16.59,16.59a137.4,137.4,0,0,0-11.9,28.71H594.05v64.38l22.13-17.52V449.07H635l1.89-8.71a115.12,115.12,0,0,1,15.69-37.87l4.83-7.51-13.34-13.34,22.73-22.73,13.34,13.34,7.5-4.82a115.16,115.16,0,0,1,37.88-15.7l8.71-1.89V331h32.15v18.85l8.71,1.9A115.17,115.17,0,0,1,813,367.42l7.5,4.83,13.34-13.34,22.73,22.73L843.24,395l4.83,7.5a115.35,115.35,0,0,1,15.69,37.88l1.89,8.71h18.86v35.14l.89.6c1.83,1.24,3.7,2.56,5.64,4.06s4.55,3.5,7.67,5.87l7.93,6v-73.8Z" transform="translate(-543.2 -233.8)"/></svg>